<svg width="353" height="369" viewBox="0 0 353 369" fill="none" xmlns="http://www.w3.org/2000/svg">
  <path d="M96.19 250.91C1.64996 230.07 -31.07 112.7 33.76 42.4C83.47 -13.15 171.63 -14.29 222.7 40.01C247.24 65.79 259.92 103.37 255 138.16C253.98 115.06 247.37 92.71 235.36 73.96C191.83 4.87999 93.89 -2.66001 41.83 60.72C-9.98004 125.03 18.33 220.97 96.19 250.91Z" fill="url(#paint0_linear_1_35)"/>
  <path d="M244.23 204.97C235.48 209.27 226.38 212.86 217.19 216.17C205.99 220.19 197.05 224.96 190 230.21C178.03 239.12 171.47 249.42 168.47 260V260.06C168.35 260.49 168.22 260.9 168.13 261.33C168.32 259.1 172.99 203.2 246.71 159.92C246.83 159.86 246.99 159.8 247.11 159.7C344.28 109.71 337.78 47.03 337.78 47.03C390.77 122.64 287.85 183.48 244.23 204.95V204.97Z" fill="url(#paint1_linear_1_35)"/>
  <path d="M254.06 361.84C236.89 369.2 221.45 369.79 208.59 367.38C187.71 363.42 169.7 350.27 158.48 332.27C152.45 322.59 148.02 313.34 144.93 304.55C121.39 237.27 176.89 195.6 200.8 181.27C203.24 179.82 205.72 178.49 208.26 177.25C211.23 175.8 214.23 174.47 217.29 173.26C228.02 168.96 237.8 164.51 246.71 159.93C172.99 203.21 168.32 259.11 168.13 261.34C165.41 271.89 166.15 282.69 168.5 292.55C168.5 292.58 168.5 292.61 168.53 292.64C175.65 322.65 198.14 346.87 227.21 357.08C235.44 359.99 244.5 361.91 254.06 361.84Z" fill="url(#paint2_linear_1_35)"/>
  <path d="M260.72 243.88C258.09 244.81 255.43 245.55 252.77 246.32C242.72 249.17 212.15 259.03 196.25 278.21C196.53 277 204.6 242.88 256.51 217.95C256.63 217.89 256.76 217.83 256.88 217.8C260.38 216.31 263.99 214.74 267.71 213C296.39 199.7 329.55 178.66 339.45 149.74C339.45 149.74 344.8 214.43 260.72 243.88Z" fill="url(#paint3_linear_1_35)"/>
  <path d="M256.51 217.96C204.6 242.89 196.53 277.01 196.25 278.22V278.25C188.89 287.13 184.65 297.96 187.03 311.01C187.03 311.01 156.03 255.64 221.09 230.36C221.09 230.36 236.59 226.25 256.51 217.96Z" fill="url(#paint4_linear_1_35)"/>
  <path d="M336.86 204.98C324.15 224.5 304.69 246.52 266.36 259.95C263.64 260.91 261.07 261.65 258.56 262.36L257.51 262.67C236.13 268.73 220.94 276.68 211.11 287.05C205.67 292.74 203.35 299.45 203.78 308.18C203.81 308.3 205.2 325.1 216.99 333.48L215.23 336.02C202.21 326.77 200.78 309.11 200.72 308.36C200.22 298.83 202.89 291.19 208.86 284.91C219.1 274.14 234.75 265.89 256.69 259.7L257.71 259.39C260.18 258.68 262.69 257.94 265.32 257.01C303.22 243.74 324.5 224.13 336.87 204.98H336.86Z" fill="url(#paint5_linear_1_35)"/>
  <path d="M126.52 249.46C124.11 259.39 123.27 269.54 124.01 279.81C113.68 257.38 118.6 233.96 118.6 233.96C146.01 84.9801 43.98 121.45 43.98 121.45L80.27 83.25C87.6 75.55 97.78 71.1501 108.39 71.1501H129.09C138.71 71.1501 147.96 67.5901 155.11 61.1301L170.67 47.05L159.1 74.52C153.84 86.92 155.42 101.16 163.25 112.14L200.28 163.96C197.68 165.26 195.21 166.59 192.86 168.01C172.47 180.23 136.74 207.08 126.54 249.46H126.52Z" fill="url(#paint6_linear_1_35)"/>
  <defs>
    <linearGradient id="paint0_linear_1_35" x1="178.43" y1="178.04" x2="37.28" y2="36.89" gradientUnits="userSpaceOnUse">
      <stop stop-color="#F7B733"/>
      <stop offset="1" stop-color="#FC4A1A"/>
    </linearGradient>
    <linearGradient id="paint1_linear_1_35" x1="197.09" y1="213.07" x2="335.02" y2="95.51" gradientUnits="userSpaceOnUse">
      <stop stop-color="#F7B733"/>
      <stop offset="1" stop-color="#FC4A1A"/>
    </linearGradient>
    <linearGradient id="paint2_linear_1_35" x1="180.63" y1="360.86" x2="233.77" y2="194.53" gradientUnits="userSpaceOnUse">
      <stop stop-color="#F7B733"/>
      <stop offset="1" stop-color="#FC4A1A"/>
    </linearGradient>
    <linearGradient id="paint3_linear_1_35" x1="202.02" y1="260.86" x2="328.31" y2="181.52" gradientUnits="userSpaceOnUse">
      <stop stop-color="#F7B733"/>
      <stop offset="1" stop-color="#FC4A1A"/>
    </linearGradient>
    <linearGradient id="paint4_linear_1_35" x1="181.57" y1="308.09" x2="219.05" y2="241.49" gradientUnits="userSpaceOnUse">
      <stop stop-color="#F7B733"/>
      <stop offset="1" stop-color="#FC4A1A"/>
    </linearGradient>
    <linearGradient id="paint5_linear_1_35" x1="208.88" y1="312.63" x2="296.96" y2="242.03" gradientUnits="userSpaceOnUse">
      <stop stop-color="#F7B733"/>
      <stop offset="1" stop-color="#FC4A1A"/>
    </linearGradient>
    <linearGradient id="paint6_linear_1_35" x1="166.23" y1="193.15" x2="86.16" y2="67.2201" gradientUnits="userSpaceOnUse">
      <stop stop-color="#F7B733"/>
      <stop offset="1" stop-color="#FC4A1A"/>
    </linearGradient>
  </defs>
</svg>
